<mxfile host="Electron" agent="Mozilla/5.0 (Windows NT 10.0; Win64; x64) AppleWebKit/537.36 (KHTML, like Gecko) draw.io/26.0.9 Chrome/128.0.6613.186 Electron/32.2.5 Safari/537.36" version="26.0.9" pages="5">
  <diagram name="cas utilisation" id="npVi_FSyL5HMamY7sAoL">
    <mxGraphModel dx="1246" dy="2119" grid="1" gridSize="10" guides="1" tooltips="1" connect="1" arrows="1" fold="1" page="1" pageScale="1" pageWidth="827" pageHeight="1169" math="0" shadow="0">
      <root>
        <mxCell id="0" />
        <mxCell id="1" parent="0" />
        <mxCell id="iEL2oEA0xMKONUqUdNvn-1" value="" style="whiteSpace=wrap;html=1;aspect=fixed;fontSize=14;fontStyle=1" parent="1" vertex="1">
          <mxGeometry x="90" y="-10" width="1440" height="1440" as="geometry" />
        </mxCell>
        <mxCell id="YeAyZ1LEtQYNFlk5Zdll-1" value="" style="swimlane;startSize=0;fontSize=14;fontStyle=1" parent="1" vertex="1">
          <mxGeometry x="480" y="180" width="910" height="840" as="geometry">
            <mxRectangle x="220" y="140" width="50" height="40" as="alternateBounds" />
          </mxGeometry>
        </mxCell>
        <mxCell id="81pG5Bs6DS2YT8soldCP-4" value="Gérer comptes&amp;nbsp;" style="ellipse;whiteSpace=wrap;html=1;fontSize=14;fontStyle=1;rotation=0;flipV=1;flipH=1;spacingTop=3;" parent="YeAyZ1LEtQYNFlk5Zdll-1" vertex="1">
          <mxGeometry x="258" y="524" width="205" height="50" as="geometry" />
        </mxCell>
        <mxCell id="81pG5Bs6DS2YT8soldCP-5" value="Envoyer argent" style="ellipse;whiteSpace=wrap;html=1;fontSize=14;fontStyle=1;rotation=0;flipV=1;flipH=1;spacingTop=3;" parent="YeAyZ1LEtQYNFlk5Zdll-1" vertex="1">
          <mxGeometry x="258" y="81" width="205" height="50" as="geometry" />
        </mxCell>
        <mxCell id="DMiTSooIrfNzQ06nDnnF-7" value="Gérer flotte" style="ellipse;whiteSpace=wrap;html=1;fontSize=14;fontStyle=1;rotation=0;flipV=1;flipH=1;spacingTop=3;" parent="YeAyZ1LEtQYNFlk5Zdll-1" vertex="1">
          <mxGeometry x="258" y="596" width="205" height="50" as="geometry" />
        </mxCell>
        <mxCell id="kaCewuOL8bynHvhdQ5za-1" value="&lt;div&gt;Envoyer message&amp;nbsp;&lt;/div&gt;" style="ellipse;whiteSpace=wrap;html=1;fontSize=14;fontStyle=1;rotation=0;flipV=1;flipH=1;spacingTop=3;" vertex="1" parent="YeAyZ1LEtQYNFlk5Zdll-1">
          <mxGeometry x="258" y="303" width="205" height="50" as="geometry" />
        </mxCell>
        <mxCell id="81pG5Bs6DS2YT8soldCP-3" value="&amp;nbsp;Recevoir argent" style="ellipse;whiteSpace=wrap;html=1;fontSize=14;fontStyle=1;rotation=0;flipV=1;flipH=1;spacingTop=3;" parent="YeAyZ1LEtQYNFlk5Zdll-1" vertex="1">
          <mxGeometry x="258" y="154" width="205" height="50" as="geometry" />
        </mxCell>
        <mxCell id="DMiTSooIrfNzQ06nDnnF-8" value="Gérer finances&amp;nbsp;" style="ellipse;whiteSpace=wrap;html=1;fontSize=14;fontStyle=1;rotation=0;flipV=1;flipH=1;spacingTop=3;" parent="YeAyZ1LEtQYNFlk5Zdll-1" vertex="1">
          <mxGeometry x="258" y="225" width="205" height="50" as="geometry" />
        </mxCell>
        <mxCell id="DMiTSooIrfNzQ06nDnnF-4" value="Recevoir message" style="ellipse;whiteSpace=wrap;html=1;fontSize=14;fontStyle=1;rotation=0;flipV=1;flipH=1;spacingTop=3;" parent="YeAyZ1LEtQYNFlk5Zdll-1" vertex="1">
          <mxGeometry x="258" y="377" width="205" height="50" as="geometry" />
        </mxCell>
        <mxCell id="DMiTSooIrfNzQ06nDnnF-5" value="Consulter localisation" style="ellipse;whiteSpace=wrap;html=1;fontSize=14;fontStyle=1;rotation=0;flipV=1;flipH=1;spacingTop=3;" parent="YeAyZ1LEtQYNFlk5Zdll-1" vertex="1">
          <mxGeometry x="258" y="453" width="205" height="50" as="geometry" />
        </mxCell>
        <mxCell id="DMiTSooIrfNzQ06nDnnF-11" value="Accéder aux paramètres&amp;nbsp;" style="ellipse;whiteSpace=wrap;html=1;fontSize=14;fontStyle=1;rotation=0;flipV=1;flipH=1;spacingTop=3;" parent="YeAyZ1LEtQYNFlk5Zdll-1" vertex="1">
          <mxGeometry x="258" y="666" width="205" height="50" as="geometry" />
        </mxCell>
        <mxCell id="YeAyZ1LEtQYNFlk5Zdll-2" value="&lt;span&gt;&lt;font&gt;Flowatch&lt;/font&gt;&lt;/span&gt;" style="text;strokeColor=none;align=center;fillColor=none;html=1;verticalAlign=middle;whiteSpace=wrap;rounded=0;fontSize=23;fontStyle=1" parent="YeAyZ1LEtQYNFlk5Zdll-1" vertex="1">
          <mxGeometry x="420" y="10" width="131" height="29" as="geometry" />
        </mxCell>
        <mxCell id="81pG5Bs6DS2YT8soldCP-6" value="&lt;div&gt;S&#39;authentifier&lt;/div&gt;" style="ellipse;whiteSpace=wrap;html=1;fontSize=14;fontStyle=1" parent="YeAyZ1LEtQYNFlk5Zdll-1" vertex="1">
          <mxGeometry x="620" y="360" width="205" height="49" as="geometry" />
        </mxCell>
        <mxCell id="VJQsuepiQcWrwBPj6oMs-6" value="Administrateur" style="shape=umlActor;verticalLabelPosition=bottom;verticalAlign=top;html=1;fontSize=14;fontStyle=1" parent="1" vertex="1">
          <mxGeometry x="185" y="670" width="90" height="140" as="geometry" />
        </mxCell>
        <mxCell id="VJQsuepiQcWrwBPj6oMs-10" value="Conducteur" style="shape=umlActor;verticalLabelPosition=bottom;verticalAlign=top;html=1;fontSize=14;fontStyle=1" parent="1" vertex="1">
          <mxGeometry x="275" y="320" width="60" height="140" as="geometry" />
        </mxCell>
        <mxCell id="kaCewuOL8bynHvhdQ5za-6" value="" style="endArrow=none;html=1;rounded=0;fontSize=12;startSize=8;endSize=8;curved=1;entryX=0;entryY=0.5;entryDx=0;entryDy=0;" edge="1" parent="1" target="DMiTSooIrfNzQ06nDnnF-11">
          <mxGeometry relative="1" as="geometry">
            <mxPoint x="300" y="770" as="sourcePoint" />
            <mxPoint x="720" y="580" as="targetPoint" />
          </mxGeometry>
        </mxCell>
        <mxCell id="kaCewuOL8bynHvhdQ5za-13" value="" style="endArrow=none;html=1;rounded=0;fontSize=12;startSize=8;endSize=8;curved=1;entryX=0;entryY=0.5;entryDx=0;entryDy=0;" edge="1" parent="1" target="DMiTSooIrfNzQ06nDnnF-7">
          <mxGeometry relative="1" as="geometry">
            <mxPoint x="290" y="772" as="sourcePoint" />
            <mxPoint x="780" y="610" as="targetPoint" />
          </mxGeometry>
        </mxCell>
        <mxCell id="kaCewuOL8bynHvhdQ5za-14" value="" style="endArrow=none;html=1;rounded=0;fontSize=12;startSize=8;endSize=8;curved=1;entryX=0;entryY=0.5;entryDx=0;entryDy=0;" edge="1" parent="1" target="81pG5Bs6DS2YT8soldCP-4">
          <mxGeometry relative="1" as="geometry">
            <mxPoint x="290" y="772" as="sourcePoint" />
            <mxPoint x="748" y="811" as="targetPoint" />
          </mxGeometry>
        </mxCell>
        <mxCell id="kaCewuOL8bynHvhdQ5za-15" value="" style="endArrow=none;html=1;rounded=0;fontSize=12;startSize=8;endSize=8;curved=1;entryX=0;entryY=0.5;entryDx=0;entryDy=0;" edge="1" parent="1" target="DMiTSooIrfNzQ06nDnnF-5">
          <mxGeometry relative="1" as="geometry">
            <mxPoint x="300" y="770" as="sourcePoint" />
            <mxPoint x="748" y="739" as="targetPoint" />
          </mxGeometry>
        </mxCell>
        <mxCell id="kaCewuOL8bynHvhdQ5za-17" value="" style="endArrow=none;html=1;rounded=0;fontSize=12;startSize=8;endSize=8;curved=1;entryX=0.942;entryY=0.19;entryDx=0;entryDy=0;entryPerimeter=0;" edge="1" parent="1" target="DMiTSooIrfNzQ06nDnnF-8">
          <mxGeometry relative="1" as="geometry">
            <mxPoint x="290" y="770" as="sourcePoint" />
            <mxPoint x="780" y="610" as="targetPoint" />
          </mxGeometry>
        </mxCell>
        <mxCell id="kaCewuOL8bynHvhdQ5za-19" value="" style="endArrow=none;html=1;rounded=0;fontSize=12;startSize=8;endSize=8;curved=1;entryX=0;entryY=0.5;entryDx=0;entryDy=0;" edge="1" parent="1" target="DMiTSooIrfNzQ06nDnnF-4">
          <mxGeometry relative="1" as="geometry">
            <mxPoint x="350" y="440" as="sourcePoint" />
            <mxPoint x="780" y="610" as="targetPoint" />
          </mxGeometry>
        </mxCell>
        <mxCell id="kaCewuOL8bynHvhdQ5za-20" value="" style="endArrow=none;html=1;rounded=0;fontSize=12;startSize=8;endSize=8;curved=1;entryX=0;entryY=0.5;entryDx=0;entryDy=0;" edge="1" parent="1" target="kaCewuOL8bynHvhdQ5za-1">
          <mxGeometry relative="1" as="geometry">
            <mxPoint x="340" y="440" as="sourcePoint" />
            <mxPoint x="748" y="592" as="targetPoint" />
          </mxGeometry>
        </mxCell>
        <mxCell id="kaCewuOL8bynHvhdQ5za-21" value="" style="endArrow=none;html=1;rounded=0;fontSize=12;startSize=8;endSize=8;curved=1;entryX=0;entryY=0.5;entryDx=0;entryDy=0;" edge="1" parent="1" target="81pG5Bs6DS2YT8soldCP-3">
          <mxGeometry relative="1" as="geometry">
            <mxPoint x="350" y="440" as="sourcePoint" />
            <mxPoint x="748" y="518" as="targetPoint" />
          </mxGeometry>
        </mxCell>
        <mxCell id="kaCewuOL8bynHvhdQ5za-22" value="" style="endArrow=none;html=1;rounded=0;fontSize=12;startSize=8;endSize=8;curved=1;entryX=0;entryY=0.5;entryDx=0;entryDy=0;" edge="1" parent="1" target="81pG5Bs6DS2YT8soldCP-5">
          <mxGeometry relative="1" as="geometry">
            <mxPoint x="340" y="440" as="sourcePoint" />
            <mxPoint x="748" y="369" as="targetPoint" />
          </mxGeometry>
        </mxCell>
      </root>
    </mxGraphModel>
  </diagram>
  <diagram name="Copie de cas utilisation" id="KM_tuxh6DBcG2fwiCIV6">
    <mxGraphModel dx="623" dy="1644" grid="1" gridSize="10" guides="1" tooltips="1" connect="1" arrows="1" fold="1" page="1" pageScale="1" pageWidth="827" pageHeight="1169" math="0" shadow="0">
      <root>
        <mxCell id="H2wc9Udq3u3a5EocE68b-0" />
        <mxCell id="H2wc9Udq3u3a5EocE68b-1" parent="H2wc9Udq3u3a5EocE68b-0" />
        <mxCell id="H2wc9Udq3u3a5EocE68b-2" value="" style="whiteSpace=wrap;html=1;aspect=fixed;fontSize=14;fontStyle=1" vertex="1" parent="H2wc9Udq3u3a5EocE68b-1">
          <mxGeometry x="90" y="-10" width="1440" height="1440" as="geometry" />
        </mxCell>
        <mxCell id="H2wc9Udq3u3a5EocE68b-3" value="" style="swimlane;startSize=0;fontSize=14;fontStyle=1" vertex="1" parent="H2wc9Udq3u3a5EocE68b-1">
          <mxGeometry x="480" y="180" width="910" height="840" as="geometry">
            <mxRectangle x="220" y="140" width="50" height="40" as="alternateBounds" />
          </mxGeometry>
        </mxCell>
        <mxCell id="H2wc9Udq3u3a5EocE68b-4" value="Gérer comptes&amp;nbsp;" style="ellipse;whiteSpace=wrap;html=1;fontSize=14;fontStyle=1;rotation=0;flipV=1;flipH=1;spacingTop=3;" vertex="1" parent="H2wc9Udq3u3a5EocE68b-3">
          <mxGeometry x="258" y="524" width="205" height="50" as="geometry" />
        </mxCell>
        <mxCell id="H2wc9Udq3u3a5EocE68b-5" value="Envoyer argent" style="ellipse;whiteSpace=wrap;html=1;fontSize=14;fontStyle=1;rotation=0;flipV=1;flipH=1;spacingTop=3;" vertex="1" parent="H2wc9Udq3u3a5EocE68b-3">
          <mxGeometry x="258" y="81" width="205" height="50" as="geometry" />
        </mxCell>
        <mxCell id="H2wc9Udq3u3a5EocE68b-6" value="Gérer flotte" style="ellipse;whiteSpace=wrap;html=1;fontSize=14;fontStyle=1;rotation=0;flipV=1;flipH=1;spacingTop=3;" vertex="1" parent="H2wc9Udq3u3a5EocE68b-3">
          <mxGeometry x="258" y="596" width="205" height="50" as="geometry" />
        </mxCell>
        <mxCell id="H2wc9Udq3u3a5EocE68b-7" value="&lt;div&gt;Envoyer message&amp;nbsp;&lt;/div&gt;" style="ellipse;whiteSpace=wrap;html=1;fontSize=14;fontStyle=1;rotation=0;flipV=1;flipH=1;spacingTop=3;" vertex="1" parent="H2wc9Udq3u3a5EocE68b-3">
          <mxGeometry x="258" y="303" width="205" height="50" as="geometry" />
        </mxCell>
        <mxCell id="H2wc9Udq3u3a5EocE68b-8" value="&amp;nbsp;Recevoir argent" style="ellipse;whiteSpace=wrap;html=1;fontSize=14;fontStyle=1;rotation=0;flipV=1;flipH=1;spacingTop=3;" vertex="1" parent="H2wc9Udq3u3a5EocE68b-3">
          <mxGeometry x="258" y="154" width="205" height="50" as="geometry" />
        </mxCell>
        <mxCell id="H2wc9Udq3u3a5EocE68b-9" value="Gérer finances&amp;nbsp;" style="ellipse;whiteSpace=wrap;html=1;fontSize=14;fontStyle=1;rotation=0;flipV=1;flipH=1;spacingTop=3;" vertex="1" parent="H2wc9Udq3u3a5EocE68b-3">
          <mxGeometry x="258" y="225" width="205" height="50" as="geometry" />
        </mxCell>
        <mxCell id="H2wc9Udq3u3a5EocE68b-10" value="Recevoir message" style="ellipse;whiteSpace=wrap;html=1;fontSize=14;fontStyle=1;rotation=0;flipV=1;flipH=1;spacingTop=3;" vertex="1" parent="H2wc9Udq3u3a5EocE68b-3">
          <mxGeometry x="258" y="377" width="205" height="50" as="geometry" />
        </mxCell>
        <mxCell id="H2wc9Udq3u3a5EocE68b-11" value="Consulter localisation" style="ellipse;whiteSpace=wrap;html=1;fontSize=14;fontStyle=1;rotation=0;flipV=1;flipH=1;spacingTop=3;" vertex="1" parent="H2wc9Udq3u3a5EocE68b-3">
          <mxGeometry x="258" y="453" width="205" height="50" as="geometry" />
        </mxCell>
        <mxCell id="H2wc9Udq3u3a5EocE68b-12" value="Accéder aux paramètres&amp;nbsp;" style="ellipse;whiteSpace=wrap;html=1;fontSize=14;fontStyle=1;rotation=0;flipV=1;flipH=1;spacingTop=3;" vertex="1" parent="H2wc9Udq3u3a5EocE68b-3">
          <mxGeometry x="258" y="666" width="205" height="50" as="geometry" />
        </mxCell>
        <mxCell id="H2wc9Udq3u3a5EocE68b-13" value="&lt;span&gt;&lt;font&gt;Flowatch&lt;/font&gt;&lt;/span&gt;" style="text;strokeColor=none;align=center;fillColor=none;html=1;verticalAlign=middle;whiteSpace=wrap;rounded=0;fontSize=23;fontStyle=1" vertex="1" parent="H2wc9Udq3u3a5EocE68b-3">
          <mxGeometry x="420" y="10" width="131" height="29" as="geometry" />
        </mxCell>
        <mxCell id="H2wc9Udq3u3a5EocE68b-14" value="&lt;div&gt;S&#39;authentifier&lt;/div&gt;" style="ellipse;whiteSpace=wrap;html=1;fontSize=14;fontStyle=1" vertex="1" parent="H2wc9Udq3u3a5EocE68b-3">
          <mxGeometry x="620" y="360" width="205" height="49" as="geometry" />
        </mxCell>
        <mxCell id="H2wc9Udq3u3a5EocE68b-15" value="Administrateur" style="shape=umlActor;verticalLabelPosition=bottom;verticalAlign=top;html=1;fontSize=14;fontStyle=1" vertex="1" parent="H2wc9Udq3u3a5EocE68b-1">
          <mxGeometry x="185" y="670" width="90" height="140" as="geometry" />
        </mxCell>
        <mxCell id="H2wc9Udq3u3a5EocE68b-16" value="Conducteur" style="shape=umlActor;verticalLabelPosition=bottom;verticalAlign=top;html=1;fontSize=14;fontStyle=1" vertex="1" parent="H2wc9Udq3u3a5EocE68b-1">
          <mxGeometry x="275" y="320" width="60" height="140" as="geometry" />
        </mxCell>
        <mxCell id="H2wc9Udq3u3a5EocE68b-17" value="" style="endArrow=none;html=1;rounded=0;fontSize=12;startSize=8;endSize=8;curved=1;entryX=0;entryY=0.5;entryDx=0;entryDy=0;" edge="1" parent="H2wc9Udq3u3a5EocE68b-1" target="H2wc9Udq3u3a5EocE68b-12">
          <mxGeometry relative="1" as="geometry">
            <mxPoint x="300" y="770" as="sourcePoint" />
            <mxPoint x="720" y="580" as="targetPoint" />
          </mxGeometry>
        </mxCell>
        <mxCell id="H2wc9Udq3u3a5EocE68b-18" value="" style="endArrow=none;html=1;rounded=0;fontSize=12;startSize=8;endSize=8;curved=1;entryX=0;entryY=0.5;entryDx=0;entryDy=0;" edge="1" parent="H2wc9Udq3u3a5EocE68b-1" target="H2wc9Udq3u3a5EocE68b-6">
          <mxGeometry relative="1" as="geometry">
            <mxPoint x="290" y="772" as="sourcePoint" />
            <mxPoint x="780" y="610" as="targetPoint" />
          </mxGeometry>
        </mxCell>
        <mxCell id="H2wc9Udq3u3a5EocE68b-19" value="" style="endArrow=none;html=1;rounded=0;fontSize=12;startSize=8;endSize=8;curved=1;entryX=0;entryY=0.5;entryDx=0;entryDy=0;" edge="1" parent="H2wc9Udq3u3a5EocE68b-1" target="H2wc9Udq3u3a5EocE68b-4">
          <mxGeometry relative="1" as="geometry">
            <mxPoint x="290" y="772" as="sourcePoint" />
            <mxPoint x="748" y="811" as="targetPoint" />
          </mxGeometry>
        </mxCell>
        <mxCell id="H2wc9Udq3u3a5EocE68b-20" value="" style="endArrow=none;html=1;rounded=0;fontSize=12;startSize=8;endSize=8;curved=1;entryX=0;entryY=0.5;entryDx=0;entryDy=0;" edge="1" parent="H2wc9Udq3u3a5EocE68b-1" target="H2wc9Udq3u3a5EocE68b-11">
          <mxGeometry relative="1" as="geometry">
            <mxPoint x="300" y="770" as="sourcePoint" />
            <mxPoint x="748" y="739" as="targetPoint" />
          </mxGeometry>
        </mxCell>
        <mxCell id="H2wc9Udq3u3a5EocE68b-21" value="" style="endArrow=none;html=1;rounded=0;fontSize=12;startSize=8;endSize=8;curved=1;entryX=0.942;entryY=0.19;entryDx=0;entryDy=0;entryPerimeter=0;" edge="1" parent="H2wc9Udq3u3a5EocE68b-1" target="H2wc9Udq3u3a5EocE68b-9">
          <mxGeometry relative="1" as="geometry">
            <mxPoint x="290" y="770" as="sourcePoint" />
            <mxPoint x="780" y="610" as="targetPoint" />
          </mxGeometry>
        </mxCell>
        <mxCell id="H2wc9Udq3u3a5EocE68b-22" value="" style="endArrow=none;html=1;rounded=0;fontSize=12;startSize=8;endSize=8;curved=1;entryX=0;entryY=0.5;entryDx=0;entryDy=0;" edge="1" parent="H2wc9Udq3u3a5EocE68b-1" target="H2wc9Udq3u3a5EocE68b-10">
          <mxGeometry relative="1" as="geometry">
            <mxPoint x="350" y="440" as="sourcePoint" />
            <mxPoint x="780" y="610" as="targetPoint" />
          </mxGeometry>
        </mxCell>
        <mxCell id="H2wc9Udq3u3a5EocE68b-23" value="" style="endArrow=none;html=1;rounded=0;fontSize=12;startSize=8;endSize=8;curved=1;entryX=0;entryY=0.5;entryDx=0;entryDy=0;" edge="1" parent="H2wc9Udq3u3a5EocE68b-1" target="H2wc9Udq3u3a5EocE68b-7">
          <mxGeometry relative="1" as="geometry">
            <mxPoint x="340" y="440" as="sourcePoint" />
            <mxPoint x="748" y="592" as="targetPoint" />
          </mxGeometry>
        </mxCell>
        <mxCell id="H2wc9Udq3u3a5EocE68b-24" value="" style="endArrow=none;html=1;rounded=0;fontSize=12;startSize=8;endSize=8;curved=1;entryX=0;entryY=0.5;entryDx=0;entryDy=0;" edge="1" parent="H2wc9Udq3u3a5EocE68b-1" target="H2wc9Udq3u3a5EocE68b-8">
          <mxGeometry relative="1" as="geometry">
            <mxPoint x="350" y="440" as="sourcePoint" />
            <mxPoint x="748" y="518" as="targetPoint" />
          </mxGeometry>
        </mxCell>
        <mxCell id="H2wc9Udq3u3a5EocE68b-25" value="" style="endArrow=none;html=1;rounded=0;fontSize=12;startSize=8;endSize=8;curved=1;entryX=0;entryY=0.5;entryDx=0;entryDy=0;" edge="1" parent="H2wc9Udq3u3a5EocE68b-1" target="H2wc9Udq3u3a5EocE68b-5">
          <mxGeometry relative="1" as="geometry">
            <mxPoint x="340" y="440" as="sourcePoint" />
            <mxPoint x="748" y="369" as="targetPoint" />
          </mxGeometry>
        </mxCell>
      </root>
    </mxGraphModel>
  </diagram>
  <diagram id="VdpnJCeotzb0PSB9JDJn" name="diagramme classe">
    <mxGraphModel dx="2492" dy="1900" grid="1" gridSize="10" guides="1" tooltips="1" connect="1" arrows="1" fold="1" page="1" pageScale="1" pageWidth="827" pageHeight="1169" math="0" shadow="0">
      <root>
        <mxCell id="0" />
        <mxCell id="1" parent="0" />
        <mxCell id="CjHvyQOTq8oIunCmaoa2-15" value="&lt;p style=&quot;margin: 4px 0px 0px; line-height: 15%;&quot;&gt;&lt;font style=&quot;line-height: 15%;&quot;&gt;&lt;br&gt;&lt;/font&gt;&lt;/p&gt;&lt;p style=&quot;margin: 4px 0px 0px; line-height: 25%;&quot;&gt;&lt;font style=&quot;line-height: 25%;&quot;&gt;Utilisateur&lt;/font&gt;&lt;/p&gt;&lt;p style=&quot;margin: 4px 0px 0px; line-height: 15%;&quot;&gt;&lt;font style=&quot;line-height: 15%;&quot;&gt;&lt;br&gt;&lt;/font&gt;&lt;/p&gt;&lt;hr style=&quot;border-style:solid;&quot;&gt;&lt;p style=&quot;margin: 0px 0px 0px 4px; line-height: 25%;&quot;&gt;&lt;font&gt;&lt;span style=&quot;background-color: transparent; color: light-dark(rgb(0, 0, 0), rgb(255, 255, 255)); line-height: 25%;&quot;&gt;code Utilisateur :&lt;/span&gt;&lt;br&gt;&lt;/font&gt;&lt;/p&gt;&lt;p class=&quot;MsoNormal&quot; style=&quot;margin-bottom: 0cm; line-height: 25%;&quot;&gt;&lt;span lang=&quot;FR&quot;&gt;&lt;font style=&quot;line-height: 25%;&quot;&gt;-nom&amp;nbsp;:&lt;/font&gt;&lt;/span&gt;&lt;/p&gt;&lt;p class=&quot;MsoNormal&quot; style=&quot;margin-bottom: 0cm; line-height: 25%;&quot;&gt;&lt;span lang=&quot;FR&quot;&gt;&lt;font style=&quot;line-height: 25%;&quot;&gt;-prénom&amp;nbsp;:&lt;/font&gt;&lt;/span&gt;&lt;/p&gt;&lt;p class=&quot;MsoNormal&quot; style=&quot;margin-bottom: 0cm; line-height: 25%;&quot;&gt;&lt;span lang=&quot;FR&quot;&gt;&lt;font style=&quot;line-height: 25%;&quot;&gt;sexe :&lt;/font&gt;&lt;/span&gt;&lt;/p&gt;&lt;p class=&quot;MsoNormal&quot; style=&quot;margin-bottom: 0cm; line-height: 25%;&quot;&gt;&lt;span lang=&quot;FR&quot;&gt;&lt;font style=&quot;line-height: 25%;&quot;&gt;-nationalite :&lt;/font&gt;&lt;/span&gt;&lt;/p&gt;&lt;p class=&quot;MsoNormal&quot; style=&quot;margin-bottom: 0cm; line-height: 25%;&quot;&gt;&lt;span lang=&quot;FR&quot;&gt;&lt;font style=&quot;line-height: 25%;&quot;&gt;-telephone&amp;nbsp;:&lt;/font&gt;&lt;/span&gt;&lt;/p&gt;&lt;p class=&quot;MsoNormal&quot; style=&quot;margin-bottom: 0cm; line-height: 25%;&quot;&gt;&lt;span lang=&quot;FR&quot;&gt;&lt;font style=&quot;line-height: 25%;&quot;&gt;-email&amp;nbsp;:&lt;/font&gt;&lt;/span&gt;&lt;/p&gt;&lt;p class=&quot;MsoNormal&quot; style=&quot;margin-bottom: 0cm; line-height: 25%;&quot;&gt;&lt;span lang=&quot;FR&quot;&gt;&lt;font style=&quot;line-height: 25%;&quot;&gt;motDePasse&lt;/font&gt;&lt;/span&gt;&lt;/p&gt;&lt;p class=&quot;MsoNormal&quot; style=&quot;margin-bottom: 0cm; line-height: 25%;&quot;&gt;&lt;span lang=&quot;FR&quot;&gt;&lt;font style=&quot;line-height: 25%;&quot;&gt;adresse&amp;nbsp;:&lt;/font&gt;&lt;/span&gt;&lt;/p&gt;&lt;hr style=&quot;border-style:solid;&quot;&gt;&lt;p style=&quot;margin: 0px 0px 0px 4px; line-height: 25%;&quot;&gt;&lt;font style=&quot;line-height: 25%;&quot;&gt;+ envoyerArgent()&lt;/font&gt;&lt;/p&gt;&lt;p style=&quot;margin: 0px 0px 0px 4px; line-height: 25%;&quot;&gt;&lt;font style=&quot;line-height: 25%;&quot;&gt;&lt;br&gt;&lt;/font&gt;&lt;/p&gt;&lt;p style=&quot;margin: 0px 0px 0px 4px; line-height: 15%;&quot;&gt;&lt;font&gt;&lt;br&gt;&lt;/font&gt;&lt;/p&gt;&lt;p style=&quot;margin: 0px 0px 0px 4px; line-height: 15%;&quot;&gt;&lt;font&gt;&lt;br&gt;&lt;/font&gt;&lt;/p&gt;&lt;p style=&quot;margin: 0px 0px 0px 4px; line-height: 15%;&quot;&gt;&lt;font&gt;&lt;br&gt;&lt;/font&gt;&lt;/p&gt;&lt;p style=&quot;margin: 0px 0px 0px 4px; line-height: 15%;&quot;&gt;&lt;font&gt;&lt;br&gt;&lt;/font&gt;&lt;/p&gt;&lt;p style=&quot;margin: 0px 0px 0px 4px; line-height: 25%;&quot;&gt;&lt;span style=&quot;line-height: 25%;&quot;&gt;&lt;font&gt;+recevoirArgent()&lt;/font&gt;&lt;/span&gt;&lt;/p&gt;&lt;p style=&quot;margin: 0px 0px 0px 4px; line-height: 15%;&quot;&gt;&lt;font&gt;&lt;br&gt;&lt;/font&gt;&lt;/p&gt;&lt;p style=&quot;margin: 0px 0px 0px 4px; line-height: 15%;&quot;&gt;&lt;font&gt;&lt;br&gt;&lt;/font&gt;&lt;/p&gt;&lt;p style=&quot;margin: 0px 0px 0px 4px; line-height: 15%;&quot;&gt;&lt;font&gt;&lt;br&gt;&lt;/font&gt;&lt;/p&gt;&lt;p style=&quot;margin: 0px 0px 0px 4px; line-height: 15%;&quot;&gt;&lt;font&gt;&lt;br&gt;&lt;/font&gt;&lt;/p&gt;&lt;p style=&quot;margin: 0px 0px 0px 4px; line-height: 25%;&quot;&gt;&lt;font&gt;&lt;span style=&quot;line-height: 25%;&quot;&gt;+envoyerMessage ()&lt;/span&gt;&lt;br&gt;&lt;/font&gt;&lt;/p&gt;&lt;p style=&quot;margin: 0px 0px 0px 4px; line-height: 15%;&quot;&gt;&lt;span&gt;&lt;font&gt;&lt;br&gt;&lt;/font&gt;&lt;/span&gt;&lt;/p&gt;&lt;p style=&quot;margin: 0px 0px 0px 4px; line-height: 15%;&quot;&gt;&lt;span&gt;&lt;font&gt;&lt;br&gt;&lt;/font&gt;&lt;/span&gt;&lt;/p&gt;&lt;p style=&quot;margin: 0px 0px 0px 4px; line-height: 15%;&quot;&gt;&lt;span&gt;&lt;font&gt;&lt;br&gt;&lt;/font&gt;&lt;/span&gt;&lt;/p&gt;&lt;p style=&quot;margin: 0px 0px 0px 4px; line-height: 15%;&quot;&gt;&lt;span&gt;&lt;font&gt;&lt;br&gt;&lt;/font&gt;&lt;/span&gt;&lt;/p&gt;&lt;p style=&quot;margin: 0px 0px 0px 4px; line-height: 25%;&quot;&gt;&lt;span style=&quot;line-height: 25%;&quot;&gt;&lt;font&gt;+recevoirMessage()&lt;/font&gt;&lt;/span&gt;&lt;span style=&quot;font-weight: 700; text-align: center;&quot;&gt;&lt;br&gt;&lt;/span&gt;&lt;/p&gt;" style="verticalAlign=top;align=left;overflow=fill;html=1;whiteSpace=wrap;fontSize=12;fontFamily=Verdana;" vertex="1" parent="1">
          <mxGeometry x="360" y="130" width="160" height="230" as="geometry" />
        </mxCell>
        <mxCell id="CjHvyQOTq8oIunCmaoa2-16" value="&lt;p style=&quot;margin: 4px 0px 0px; text-align: center; line-height: 15%;&quot;&gt;&lt;b&gt;&lt;font style=&quot;line-height: 15%;&quot;&gt;&lt;br&gt;&lt;/font&gt;&lt;/b&gt;&lt;/p&gt;&lt;p style=&quot;margin: 4px 0px 0px; text-align: center; line-height: 15%;&quot;&gt;&lt;span&gt;&lt;b&gt;Conducteur&lt;/b&gt;&lt;/span&gt;&lt;/p&gt;&lt;p style=&quot;margin: 4px 0px 0px; text-align: center; line-height: 15%;&quot;&gt;&lt;b&gt;&lt;font style=&quot;line-height: 15%;&quot;&gt;&lt;br&gt;&lt;/font&gt;&lt;/b&gt;&lt;/p&gt;&lt;hr style=&quot;border-style:solid;&quot;&gt;&lt;p style=&quot;margin: 0px 0px 0px 4px; line-height: 15%;&quot;&gt;&lt;span style=&quot;background-color: transparent; color: light-dark(rgb(0, 0, 0), rgb(255, 255, 255));&quot;&gt;-Matricule&amp;nbsp;:&lt;/span&gt;&lt;br&gt;&lt;/p&gt;&lt;p class=&quot;MsoNormal&quot; align=&quot;left&quot; style=&quot;margin-bottom: 0cm; line-height: 15%;&quot;&gt;&lt;span lang=&quot;FR&quot; style=&quot;&quot;&gt;&lt;font style=&quot;line-height: 15%;&quot;&gt;&amp;nbsp; -Numéro permis&amp;nbsp;:&lt;/font&gt;&lt;/span&gt;&lt;/p&gt;&lt;p class=&quot;MsoNormal&quot; align=&quot;left&quot; style=&quot;margin-bottom: 0cm; line-height: 15%;&quot;&gt;&lt;span lang=&quot;FR&quot; style=&quot;&quot;&gt;&lt;font style=&quot;line-height: 15%;&quot;&gt;-CNI :&lt;/font&gt;&lt;/span&gt;&lt;/p&gt;&lt;p class=&quot;MsoNormal&quot; align=&quot;left&quot; style=&quot;margin-bottom: 0cm; line-height: 15%;&quot;&gt;&lt;span lang=&quot;FR&quot; style=&quot;&quot;&gt;&lt;font style=&quot;line-height: 15%;&quot;&gt;-Date de naissance&amp;nbsp;:&lt;/font&gt;&lt;/span&gt;&lt;/p&gt;&lt;p class=&quot;MsoNormal&quot; align=&quot;left&quot; style=&quot;margin-bottom: 0cm; line-height: 15%;&quot;&gt;&lt;span lang=&quot;FR&quot; style=&quot;&quot;&gt;&lt;font style=&quot;line-height: 15%;&quot;&gt;-Date d’embauche&amp;nbsp;:&lt;/font&gt;&lt;/span&gt;&lt;/p&gt;&lt;p class=&quot;MsoNormal&quot; align=&quot;left&quot; style=&quot;margin-bottom: 0cm; line-height: 15%;&quot;&gt;&lt;span lang=&quot;FR&quot; style=&quot;&quot;&gt;&lt;font style=&quot;line-height: 15%;&quot;&gt;-Flotte&amp;nbsp;:&lt;/font&gt;&lt;/span&gt;&lt;/p&gt;&lt;hr style=&quot;border-style:solid;&quot;&gt;&lt;p style=&quot;margin: 0px 0px 0px 4px; line-height: 15%;&quot;&gt;&lt;br&gt;&lt;/p&gt;&lt;p style=&quot;margin: 0px 0px 0px 4px; line-height: 15%;&quot;&gt;&lt;br&gt;&lt;/p&gt;" style="verticalAlign=top;align=left;overflow=fill;html=1;whiteSpace=wrap;fontSize=12;fontFamily=Verdana;" vertex="1" parent="1">
          <mxGeometry x="150" y="370" width="160" height="140" as="geometry" />
        </mxCell>
        <mxCell id="05i-yh7K-xGIz6d1QZ0y-1" value="&lt;p style=&quot;margin: 4px 0px 0px; text-align: center; line-height: 15%;&quot;&gt;&lt;font style=&quot;line-height: 15%;&quot;&gt;&lt;br&gt;&lt;/font&gt;&lt;/p&gt;&lt;p style=&quot;margin: 4px 0px 0px; text-align: center; line-height: 45%;&quot;&gt;&lt;span style=&quot;line-height: 45%;&quot;&gt;Conducteur&lt;/span&gt;&lt;/p&gt;&lt;p style=&quot;margin: 4px 0px 0px; text-align: center; line-height: 15%;&quot;&gt;&lt;font style=&quot;line-height: 15%;&quot;&gt;&lt;br&gt;&lt;/font&gt;&lt;/p&gt;&lt;hr style=&quot;border-style:solid;&quot;&gt;&lt;p style=&quot;margin: 0px 0px 0px 4px; line-height: 45%;&quot;&gt;&lt;br&gt;&lt;/p&gt;&lt;hr style=&quot;border-style:solid;&quot;&gt;&lt;p style=&quot;margin: 0px 0px 0px 4px; line-height: 50%;&quot;&gt;&lt;span style=&quot;background-color: transparent; color: light-dark(rgb(0, 0, 0), rgb(255, 255, 255)); text-align: center;&quot;&gt;&lt;font style=&quot;line-height: 50%;&quot;&gt;gérerFinances&lt;/font&gt;&lt;/span&gt;&lt;span style=&quot;text-align: center; background-color: transparent; color: light-dark(rgb(0, 0, 0), rgb(255, 255, 255));&quot;&gt;()&lt;/span&gt;&lt;/p&gt;&lt;p style=&quot;margin: 0px 0px 0px 4px; line-height: 50%;&quot;&gt;&lt;font style=&quot;line-height: 50%;&quot;&gt;&lt;span style=&quot;background-color: transparent; color: light-dark(rgb(0, 0, 0), rgb(255, 255, 255)); text-align: center;&quot;&gt;&amp;nbsp;&lt;/span&gt;&lt;br&gt;&lt;/font&gt;&lt;/p&gt;&lt;p style=&quot;margin: 0px 0px 0px 4px; line-height: 15%;&quot;&gt;&lt;br&gt;&lt;/p&gt;&lt;p style=&quot;margin: 0px 0px 0px 4px; line-height: 50%;&quot;&gt;&lt;font style=&quot;line-height: 50%;&quot;&gt;&lt;span style=&quot;text-align: center;&quot;&gt;consulterLocalisation&lt;/span&gt;&lt;/font&gt;&lt;span style=&quot;text-align: center; background-color: transparent; color: light-dark(rgb(0, 0, 0), rgb(255, 255, 255));&quot;&gt;()&lt;/span&gt;&lt;/p&gt;&lt;p style=&quot;margin: 0px 0px 0px 4px; line-height: 15%;&quot;&gt;&lt;span style=&quot;text-align: center;&quot;&gt;&lt;font&gt;&lt;br&gt;&lt;/font&gt;&lt;/span&gt;&lt;/p&gt;&lt;p style=&quot;margin: 0px 0px 0px 4px; line-height: 15%;&quot;&gt;&lt;span style=&quot;text-align: center;&quot;&gt;&lt;font&gt;&lt;br&gt;&lt;/font&gt;&lt;/span&gt;&lt;/p&gt;&lt;p style=&quot;margin: 0px 0px 0px 4px; line-height: 15%;&quot;&gt;&lt;br&gt;&lt;/p&gt;&lt;p style=&quot;margin: 0px 0px 0px 4px; line-height: 50%;&quot;&gt;&lt;font style=&quot;line-height: 50%;&quot;&gt;&lt;span style=&quot;text-align: center;&quot;&gt;gérerComptes ()&lt;/span&gt;&lt;span style=&quot;text-align: center;&quot;&gt;&lt;br&gt;&lt;/span&gt;&lt;/font&gt;&lt;/p&gt;&lt;p style=&quot;margin: 0px 0px 0px 4px; line-height: 15%;&quot;&gt;&lt;span style=&quot;text-align: center;&quot;&gt;&lt;font&gt;&lt;br&gt;&lt;/font&gt;&lt;/span&gt;&lt;/p&gt;&lt;p style=&quot;margin: 0px 0px 0px 4px; line-height: 15%;&quot;&gt;&lt;span style=&quot;text-align: center;&quot;&gt;&lt;font&gt;&lt;br&gt;&lt;/font&gt;&lt;/span&gt;&lt;/p&gt;&lt;p style=&quot;margin: 0px 0px 0px 4px; line-height: 15%;&quot;&gt;&lt;span style=&quot;text-align: center;&quot;&gt;&lt;font&gt;&lt;br&gt;&lt;/font&gt;&lt;/span&gt;&lt;/p&gt;&lt;p style=&quot;margin: 0px 0px 0px 4px; line-height: 15%;&quot;&gt;&lt;br&gt;&lt;/p&gt;&lt;p style=&quot;margin: 0px 0px 0px 4px; line-height: 50%;&quot;&gt;&lt;font style=&quot;line-height: 50%;&quot;&gt;&lt;span style=&quot;text-align: center;&quot;&gt;gérerFlotte&lt;/span&gt;&lt;/font&gt;&lt;span style=&quot;text-align: center; background-color: transparent; color: light-dark(rgb(0, 0, 0), rgb(255, 255, 255));&quot;&gt;()&lt;/span&gt;&lt;/p&gt;&lt;p style=&quot;margin: 0px 0px 0px 4px; line-height: 15%;&quot;&gt;&lt;span style=&quot;text-align: center;&quot;&gt;&lt;font&gt;&lt;br&gt;&lt;/font&gt;&lt;/span&gt;&lt;/p&gt;&lt;p style=&quot;margin: 0px 0px 0px 4px; line-height: 15%;&quot;&gt;&lt;span style=&quot;text-align: center;&quot;&gt;&lt;font&gt;&lt;br&gt;&lt;/font&gt;&lt;/span&gt;&lt;/p&gt;&lt;p style=&quot;margin: 0px 0px 0px 4px; line-height: 15%;&quot;&gt;&lt;span style=&quot;text-align: center;&quot;&gt;&lt;font&gt;&lt;br&gt;&lt;/font&gt;&lt;/span&gt;&lt;/p&gt;&lt;p style=&quot;margin: 0px 0px 0px 4px; line-height: 50%;&quot;&gt;&lt;span style=&quot;text-align: center;&quot;&gt;&lt;font style=&quot;line-height: 50%;&quot;&gt;accéderAuxParamètres&amp;nbsp;&lt;/font&gt;&lt;/span&gt;&lt;span style=&quot;text-align: center; background-color: transparent; color: light-dark(rgb(0, 0, 0), rgb(255, 255, 255));&quot;&gt;()&lt;/span&gt;&lt;span style=&quot;text-align: center;&quot;&gt;&lt;br&gt;&lt;/span&gt;&lt;/p&gt;&lt;p style=&quot;margin: 0px 0px 0px 4px; line-height: 15%;&quot;&gt;&lt;span style=&quot;text-align: center;&quot;&gt;&lt;br&gt;&lt;/span&gt;&lt;/p&gt;&lt;p style=&quot;margin: 0px 0px 0px 4px; line-height: 15%;&quot;&gt;&lt;span style=&quot;text-align: center;&quot;&gt;&lt;br&gt;&lt;/span&gt;&lt;/p&gt;&lt;p style=&quot;margin: 0px 0px 0px 4px; line-height: 15%;&quot;&gt;&lt;span style=&quot;text-align: center;&quot;&gt;&lt;br&gt;&lt;/span&gt;&lt;/p&gt;&lt;p style=&quot;margin: 0px 0px 0px 4px; line-height: 15%;&quot;&gt;&lt;span style=&quot;text-align: center;&quot;&gt;&lt;br&gt;&lt;/span&gt;&lt;/p&gt;&lt;p style=&quot;margin: 0px 0px 0px 4px; line-height: 15%;&quot;&gt;&lt;span style=&quot;text-align: center;&quot;&gt;&lt;br&gt;&lt;/span&gt;&lt;/p&gt;&lt;p style=&quot;margin: 0px 0px 0px 4px; line-height: 15%;&quot;&gt;&lt;span style=&quot;text-align: center;&quot;&gt;&lt;br&gt;&lt;/span&gt;&lt;/p&gt;&lt;p style=&quot;margin: 0px 0px 0px 4px; line-height: 15%;&quot;&gt;&lt;span style=&quot;text-align: center;&quot;&gt;&lt;br&gt;&lt;/span&gt;&lt;/p&gt;&lt;p style=&quot;margin: 0px 0px 0px 4px; line-height: 15%;&quot;&gt;&lt;span style=&quot;text-align: center;&quot;&gt;&lt;br&gt;&lt;/span&gt;&lt;/p&gt;&lt;p style=&quot;margin: 0px 0px 0px 4px; line-height: 15%;&quot;&gt;&lt;span style=&quot;text-align: center;&quot;&gt;&lt;br&gt;&lt;/span&gt;&lt;/p&gt;&lt;p style=&quot;margin: 0px 0px 0px 4px; line-height: 15%;&quot;&gt;&lt;span style=&quot;text-align: center;&quot;&gt;&lt;br&gt;&lt;/span&gt;&lt;/p&gt;&lt;p style=&quot;margin: 0px 0px 0px 4px; line-height: 15%;&quot;&gt;&lt;span style=&quot;text-align: center;&quot;&gt;&lt;br&gt;&lt;/span&gt;&lt;/p&gt;&lt;p style=&quot;margin: 0px 0px 0px 4px; line-height: 15%;&quot;&gt;&lt;span style=&quot;font-weight: 700; text-align: center;&quot;&gt;&lt;br&gt;&lt;/span&gt;&lt;/p&gt;" style="verticalAlign=top;align=left;overflow=fill;html=1;whiteSpace=wrap;fontSize=12;fontFamily=Verdana;" vertex="1" parent="1">
          <mxGeometry x="400" y="430" width="200" height="130" as="geometry" />
        </mxCell>
      </root>
    </mxGraphModel>
  </diagram>
  <diagram id="P3dM1NuhA8pSY6xk8BJY" name="activity">
    <mxGraphModel dx="612" dy="464" grid="0" gridSize="10" guides="1" tooltips="1" connect="1" arrows="1" fold="1" page="0" pageScale="1" pageWidth="1200" pageHeight="1920" math="0" shadow="0">
      <root>
        <mxCell id="0" />
        <mxCell id="1" parent="0" />
      </root>
    </mxGraphModel>
  </diagram>
  <diagram id="Aq9dlghufbK6eit3jkdy" name="sequence">
    <mxGraphModel dx="1236" dy="950" grid="0" gridSize="10" guides="1" tooltips="1" connect="1" arrows="1" fold="1" page="1" pageScale="1" pageWidth="827" pageHeight="1169" background="#ffffff" math="0" shadow="0">
      <root>
        <mxCell id="0" />
        <mxCell id="1" parent="0" />
        <mxCell id="ZlY2niv5oP3YQ6Qpgsc8-22" value="" style="shape=umlLifeline;perimeter=lifelinePerimeter;whiteSpace=wrap;html=1;container=0;dropTarget=0;collapsible=0;recursiveResize=0;outlineConnect=0;portConstraint=eastwest;newEdgeStyle={&quot;curved&quot;:0,&quot;rounded&quot;:0};participant=umlActor;size=89;spacingLeft=-2;spacingBottom=1;spacingRight=-3;" vertex="1" parent="1">
          <mxGeometry x="118" y="180" width="74" height="682" as="geometry" />
        </mxCell>
        <mxCell id="ZlY2niv5oP3YQ6Qpgsc8-35" value="" style="html=1;points=[[0,0,0,0,5],[0,1,0,0,-5],[1,0,0,0,5],[1,1,0,0,-5]];perimeter=orthogonalPerimeter;outlineConnect=0;targetShapes=umlLifeline;portConstraint=eastwest;newEdgeStyle={&quot;curved&quot;:0,&quot;rounded&quot;:0};" vertex="1" parent="ZlY2niv5oP3YQ6Qpgsc8-22">
          <mxGeometry x="32" y="226" width="10" height="40" as="geometry" />
        </mxCell>
        <mxCell id="ZlY2niv5oP3YQ6Qpgsc8-44" value="" style="html=1;points=[[0,0,0,0,5],[0,1,0,0,-5],[1,0,0,0,5],[1,1,0,0,-5]];perimeter=orthogonalPerimeter;outlineConnect=0;targetShapes=umlLifeline;portConstraint=eastwest;newEdgeStyle={&quot;curved&quot;:0,&quot;rounded&quot;:0};" vertex="1" parent="ZlY2niv5oP3YQ6Qpgsc8-22">
          <mxGeometry x="32" y="382" width="10" height="54" as="geometry" />
        </mxCell>
        <mxCell id="ZlY2niv5oP3YQ6Qpgsc8-51" value="" style="html=1;points=[[0,0,0,0,5],[0,1,0,0,-5],[1,0,0,0,5],[1,1,0,0,-5]];perimeter=orthogonalPerimeter;outlineConnect=0;targetShapes=umlLifeline;portConstraint=eastwest;newEdgeStyle={&quot;curved&quot;:0,&quot;rounded&quot;:0};" vertex="1" parent="ZlY2niv5oP3YQ6Qpgsc8-22">
          <mxGeometry x="32" y="292" width="10" height="46" as="geometry" />
        </mxCell>
        <mxCell id="ZlY2niv5oP3YQ6Qpgsc8-53" value="" style="html=1;points=[[0,0,0,0,5],[0,1,0,0,-5],[1,0,0,0,5],[1,1,0,0,-5]];perimeter=orthogonalPerimeter;outlineConnect=0;targetShapes=umlLifeline;portConstraint=eastwest;newEdgeStyle={&quot;curved&quot;:0,&quot;rounded&quot;:0};" vertex="1" parent="ZlY2niv5oP3YQ6Qpgsc8-22">
          <mxGeometry x="32" y="488" width="10" height="47" as="geometry" />
        </mxCell>
        <mxCell id="ZlY2niv5oP3YQ6Qpgsc8-14" value="Envoi argent()" style="text;strokeColor=none;fillColor=none;html=1;align=center;verticalAlign=middle;whiteSpace=wrap;rounded=0;fontSize=16;" vertex="1" parent="1">
          <mxGeometry x="291" y="318" width="117" height="30" as="geometry" />
        </mxCell>
        <mxCell id="ZlY2niv5oP3YQ6Qpgsc8-25" value="" style="shape=umlLifeline;perimeter=lifelinePerimeter;whiteSpace=wrap;html=1;container=0;dropTarget=0;collapsible=0;recursiveResize=0;outlineConnect=0;portConstraint=eastwest;newEdgeStyle={&quot;curved&quot;:0,&quot;rounded&quot;:0};participant=umlActor;size=89;spacingLeft=-2;spacingBottom=1;spacingRight=-3;" vertex="1" parent="1">
          <mxGeometry x="509" y="180" width="74" height="679" as="geometry" />
        </mxCell>
        <mxCell id="ZlY2niv5oP3YQ6Qpgsc8-33" value="" style="html=1;points=[[0,0,0,0,5],[0,1,0,0,-5],[1,0,0,0,5],[1,1,0,0,-5]];perimeter=orthogonalPerimeter;outlineConnect=0;targetShapes=umlLifeline;portConstraint=eastwest;newEdgeStyle={&quot;curved&quot;:0,&quot;rounded&quot;:0};" vertex="1" parent="ZlY2niv5oP3YQ6Qpgsc8-25">
          <mxGeometry x="30" y="206" width="10" height="40" as="geometry" />
        </mxCell>
        <mxCell id="ZlY2niv5oP3YQ6Qpgsc8-34" value="Verification" style="html=1;align=left;spacingLeft=2;endArrow=block;rounded=0;edgeStyle=orthogonalEdgeStyle;curved=0;rounded=0;fontSize=12;startSize=8;endSize=8;" edge="1" target="ZlY2niv5oP3YQ6Qpgsc8-33" parent="ZlY2niv5oP3YQ6Qpgsc8-25">
          <mxGeometry relative="1" as="geometry">
            <mxPoint x="35" y="186" as="sourcePoint" />
            <Array as="points">
              <mxPoint x="65" y="216" />
            </Array>
          </mxGeometry>
        </mxCell>
        <mxCell id="ZlY2niv5oP3YQ6Qpgsc8-41" value="" style="html=1;points=[[0,0,0,0,5],[0,1,0,0,-5],[1,0,0,0,5],[1,1,0,0,-5]];perimeter=orthogonalPerimeter;outlineConnect=0;targetShapes=umlLifeline;portConstraint=eastwest;newEdgeStyle={&quot;curved&quot;:0,&quot;rounded&quot;:0};" vertex="1" parent="ZlY2niv5oP3YQ6Qpgsc8-25">
          <mxGeometry x="35" y="342" width="10" height="40" as="geometry" />
        </mxCell>
        <mxCell id="ZlY2niv5oP3YQ6Qpgsc8-42" value="Création facture" style="html=1;align=left;spacingLeft=2;endArrow=block;rounded=0;edgeStyle=orthogonalEdgeStyle;curved=0;rounded=0;fontSize=12;startSize=8;endSize=8;" edge="1" target="ZlY2niv5oP3YQ6Qpgsc8-41" parent="ZlY2niv5oP3YQ6Qpgsc8-25">
          <mxGeometry relative="1" as="geometry">
            <mxPoint x="40" y="322" as="sourcePoint" />
            <Array as="points">
              <mxPoint x="70" y="352" />
            </Array>
          </mxGeometry>
        </mxCell>
        <mxCell id="ZlY2niv5oP3YQ6Qpgsc8-43" value="" style="html=1;points=[[0,0,0,0,5],[0,1,0,0,-5],[1,0,0,0,5],[1,1,0,0,-5]];perimeter=orthogonalPerimeter;outlineConnect=0;targetShapes=umlLifeline;portConstraint=eastwest;newEdgeStyle={&quot;curved&quot;:0,&quot;rounded&quot;:0};" vertex="1" parent="ZlY2niv5oP3YQ6Qpgsc8-25">
          <mxGeometry x="30.5" y="297" width="13" height="38" as="geometry" />
        </mxCell>
        <mxCell id="ZlY2niv5oP3YQ6Qpgsc8-49" value="" style="html=1;points=[[0,0,0,0,5],[0,1,0,0,-5],[1,0,0,0,5],[1,1,0,0,-5]];perimeter=orthogonalPerimeter;outlineConnect=0;targetShapes=umlLifeline;portConstraint=eastwest;newEdgeStyle={&quot;curved&quot;:0,&quot;rounded&quot;:0};" vertex="1" parent="ZlY2niv5oP3YQ6Qpgsc8-25">
          <mxGeometry x="32" y="436" width="10" height="49" as="geometry" />
        </mxCell>
        <mxCell id="ZlY2niv5oP3YQ6Qpgsc8-30" value="" style="edgeStyle=none;curved=0;rounded=0;orthogonalLoop=1;jettySize=auto;html=1;fontSize=12;startSize=8;endSize=8;" edge="1" parent="1" source="ZlY2niv5oP3YQ6Qpgsc8-31">
          <mxGeometry relative="1" as="geometry">
            <mxPoint x="544.5" y="366" as="targetPoint" />
          </mxGeometry>
        </mxCell>
        <mxCell id="ZlY2niv5oP3YQ6Qpgsc8-27" value="" style="html=1;points=[[0,0,0,0,5],[0,1,0,0,-5],[1,0,0,0,5],[1,1,0,0,-5]];perimeter=orthogonalPerimeter;outlineConnect=0;targetShapes=umlLifeline;portConstraint=eastwest;newEdgeStyle={&quot;curved&quot;:0,&quot;rounded&quot;:0};" vertex="1" parent="1">
          <mxGeometry x="150" y="345" width="10" height="40" as="geometry" />
        </mxCell>
        <mxCell id="ZlY2niv5oP3YQ6Qpgsc8-32" value="" style="edgeStyle=none;curved=0;rounded=0;orthogonalLoop=1;jettySize=auto;html=1;fontSize=12;startSize=8;endSize=8;" edge="1" parent="1">
          <mxGeometry relative="1" as="geometry">
            <mxPoint x="160" y="346" as="sourcePoint" />
            <mxPoint x="539.5" y="346" as="targetPoint" />
          </mxGeometry>
        </mxCell>
        <mxCell id="ZlY2niv5oP3YQ6Qpgsc8-31" value="" style="html=1;points=[[0,0,0,0,5],[0,1,0,0,-5],[1,0,0,0,5],[1,1,0,0,-5]];perimeter=orthogonalPerimeter;outlineConnect=0;targetShapes=umlLifeline;portConstraint=eastwest;newEdgeStyle={&quot;curved&quot;:0,&quot;rounded&quot;:0};" vertex="1" parent="1">
          <mxGeometry x="539.5" y="347" width="13" height="38" as="geometry" />
        </mxCell>
        <mxCell id="ZlY2niv5oP3YQ6Qpgsc8-36" value="" style="edgeStyle=none;curved=0;rounded=0;orthogonalLoop=1;jettySize=auto;html=1;fontSize=12;startSize=8;endSize=8;" edge="1" parent="1" source="ZlY2niv5oP3YQ6Qpgsc8-33" target="ZlY2niv5oP3YQ6Qpgsc8-35">
          <mxGeometry relative="1" as="geometry" />
        </mxCell>
        <mxCell id="ZlY2niv5oP3YQ6Qpgsc8-37" value="ok bien reçu()" style="text;strokeColor=none;fillColor=none;html=1;align=center;verticalAlign=middle;whiteSpace=wrap;rounded=0;fontSize=16;" vertex="1" parent="1">
          <mxGeometry x="295" y="369" width="122" height="30" as="geometry" />
        </mxCell>
        <mxCell id="ZlY2niv5oP3YQ6Qpgsc8-38" value="" style="edgeStyle=none;curved=0;rounded=0;orthogonalLoop=1;jettySize=auto;html=1;fontSize=12;startSize=8;endSize=8;" edge="1" parent="1">
          <mxGeometry relative="1" as="geometry">
            <mxPoint x="161" y="473" as="sourcePoint" />
            <mxPoint x="545.5" y="473" as="targetPoint" />
          </mxGeometry>
        </mxCell>
        <mxCell id="ZlY2niv5oP3YQ6Qpgsc8-40" value="Demande&amp;nbsp; réçu()" style="text;strokeColor=none;fillColor=none;html=1;align=center;verticalAlign=middle;whiteSpace=wrap;rounded=0;fontSize=16;" vertex="1" parent="1">
          <mxGeometry x="279.5" y="438" width="140" height="30" as="geometry" />
        </mxCell>
        <mxCell id="ZlY2niv5oP3YQ6Qpgsc8-45" value="" style="edgeStyle=none;curved=0;rounded=0;orthogonalLoop=1;jettySize=auto;html=1;fontSize=12;startSize=8;endSize=8;" edge="1" parent="1" source="ZlY2niv5oP3YQ6Qpgsc8-41" target="ZlY2niv5oP3YQ6Qpgsc8-44">
          <mxGeometry relative="1" as="geometry" />
        </mxCell>
        <mxCell id="ZlY2niv5oP3YQ6Qpgsc8-46" value="Envoir réçu()" style="text;strokeColor=none;fillColor=none;html=1;align=center;verticalAlign=middle;whiteSpace=wrap;rounded=0;fontSize=16;" vertex="1" parent="1">
          <mxGeometry x="279" y="529" width="112.5" height="30" as="geometry" />
        </mxCell>
        <mxCell id="ZlY2niv5oP3YQ6Qpgsc8-48" value="" style="edgeStyle=none;curved=0;rounded=0;orthogonalLoop=1;jettySize=auto;html=1;fontSize=12;startSize=8;endSize=8;" edge="1" parent="1">
          <mxGeometry relative="1" as="geometry">
            <mxPoint x="160" y="615" as="sourcePoint" />
            <mxPoint x="541" y="615" as="targetPoint" />
          </mxGeometry>
        </mxCell>
        <mxCell id="ZlY2niv5oP3YQ6Qpgsc8-50" value="Confirme reception réçu()" style="text;strokeColor=none;fillColor=none;html=1;align=center;verticalAlign=middle;whiteSpace=wrap;rounded=0;fontSize=16;" vertex="1" parent="1">
          <mxGeometry x="247" y="585" width="194" height="30" as="geometry" />
        </mxCell>
        <mxCell id="ZlY2niv5oP3YQ6Qpgsc8-52" value="" style="edgeStyle=none;curved=0;rounded=0;orthogonalLoop=1;jettySize=auto;html=1;fontSize=12;startSize=8;endSize=8;" edge="1" parent="1">
          <mxGeometry relative="1" as="geometry">
            <mxPoint x="541" y="664" as="sourcePoint" />
            <mxPoint x="153.5" y="664" as="targetPoint" />
          </mxGeometry>
        </mxCell>
        <mxCell id="ZlY2niv5oP3YQ6Qpgsc8-54" value="ok()" style="text;strokeColor=none;fillColor=none;html=1;align=center;verticalAlign=middle;whiteSpace=wrap;rounded=0;fontSize=16;" vertex="1" parent="1">
          <mxGeometry x="257" y="633" width="194" height="30" as="geometry" />
        </mxCell>
        <mxCell id="ZlY2niv5oP3YQ6Qpgsc8-55" value="Conducteur" style="text;strokeColor=none;fillColor=none;html=1;align=center;verticalAlign=middle;whiteSpace=wrap;rounded=0;fontSize=16;" vertex="1" parent="1">
          <mxGeometry x="102" y="150" width="111" height="30" as="geometry" />
        </mxCell>
        <mxCell id="ZlY2niv5oP3YQ6Qpgsc8-56" value="Conducteur" style="text;strokeColor=none;fillColor=none;html=1;align=center;verticalAlign=middle;whiteSpace=wrap;rounded=0;fontSize=16;" vertex="1" parent="1">
          <mxGeometry x="490.5" y="140" width="111" height="30" as="geometry" />
        </mxCell>
      </root>
    </mxGraphModel>
  </diagram>
</mxfile>
